<svg xmlns="http://www.w3.org/2000/svg" xmlns:xlink="http://www.w3.org/1999/xlink" version="1.1" viewBox="0 0 128 128" width="128" height="128">
  <!-- White background with rounded rectangle -->
  <rect x="0" y="0" width="128" height="128" fill="white" rx="12" ry="12"/>
  
  <defs>
    <linearGradient id="prismGradient" x1="0%" y1="0%" x2="100%" y2="100%">
      <stop offset="0%" stop-color="#3498db" />
      <stop offset="50%" stop-color="#7d2eff" />
      <stop offset="100%" stop-color="#2ecc71" />
    </linearGradient>
    <linearGradient id="beamGradient" x1="0%" y1="0%" x2="100%" y2="0%">
      <stop offset="0%" stop-color="#ffffff" />
      <stop offset="20%" stop-color="#e74c3c" />
      <stop offset="40%" stop-color="#f39c12" />
      <stop offset="60%" stop-color="#f1c40f" />
      <stop offset="80%" stop-color="#2ecc71" />
      <stop offset="100%" stop-color="#3498db" />
    </linearGradient>
  </defs>
  
  <!-- Main prism body -->
  <path fill="url(#prismGradient)" d="M108.418,55.15c-0.219-0.353-0.681-0.463-1.032-0.245L81,71.184l-2.76-5.107l28.662-23.562  c0.319-0.263,0.366-0.736,0.103-1.056c-0.264-0.321-0.736-0.366-1.056-0.104L83.011,60.212L65.338,27.493  c-0.01-0.019-0.027-0.031-0.038-0.049c-0.023-0.036-0.049-0.068-0.078-0.1c-0.028-0.03-0.057-0.057-0.089-0.082  c-0.03-0.024-0.063-0.045-0.098-0.064c-0.04-0.022-0.08-0.04-0.123-0.054c-0.018-0.006-0.032-0.018-0.051-0.022  c-0.018-0.004-0.035-0.001-0.053-0.004c-0.045-0.008-0.089-0.012-0.135-0.011c-0.041,0-0.08,0.003-0.12,0.01  c-0.021,0.004-0.04,0-0.06,0.005c-0.021,0.005-0.036,0.018-0.056,0.024c-0.04,0.014-0.077,0.03-0.114,0.05  c-0.037,0.021-0.071,0.042-0.104,0.068c-0.031,0.024-0.059,0.05-0.086,0.079c-0.029,0.032-0.056,0.064-0.079,0.101  c-0.012,0.018-0.028,0.03-0.038,0.049L50.162,53.143L24.815,27.796c-0.293-0.293-0.768-0.293-1.061,0s-0.293,0.768,0,1.061  l30.818,30.818l-2.731,5.056L23.406,41.355c-0.319-0.263-0.792-0.218-1.056,0.104c-0.264,0.32-0.217,0.792,0.103,1.056  l28.662,23.562l-2.76,5.108L21.97,54.906c-0.352-0.218-0.813-0.108-1.032,0.245c-0.217,0.353-0.107,0.814,0.245,1.032l26.46,16.323  l-2.783,5.151l-24.374-9.206c-0.385-0.145-0.819,0.049-0.966,0.437c-0.146,0.388,0.049,0.82,0.437,0.967l17.592,6.644l-7.216,13.357  c-0.018,0.032-0.023,0.066-0.036,0.1c-0.006,0.016-0.019,0.028-0.023,0.044c-0.003,0.009,0,0.018-0.003,0.028  c-0.021,0.085-0.031,0.172-0.022,0.259c0.002,0.017,0.009,0.033,0.012,0.049c0.012,0.069,0.032,0.135,0.063,0.198  c0.013,0.026,0.027,0.05,0.043,0.075c0.015,0.023,0.023,0.049,0.041,0.071c0.014,0.018,0.036,0.024,0.051,0.041  c0.045,0.047,0.095,0.085,0.151,0.12c0.038,0.023,0.073,0.044,0.114,0.061c0.021,0.008,0.036,0.024,0.058,0.03l33.686,9.939  c0.07,0.021,0.142,0.031,0.212,0.031s0.142-0.01,0.212-0.031l33.686-9.939c0.021-0.006,0.036-0.022,0.058-0.03  c0.041-0.016,0.076-0.037,0.114-0.061c0.057-0.035,0.106-0.073,0.151-0.12c0.015-0.017,0.037-0.023,0.051-0.041  c0.018-0.022,0.026-0.048,0.041-0.071c0.016-0.025,0.03-0.048,0.043-0.074c0.031-0.064,0.052-0.13,0.063-0.199  c0.003-0.017,0.01-0.032,0.012-0.049c0.009-0.087-0.001-0.174-0.022-0.26c-0.003-0.009,0-0.018-0.003-0.027  c-0.005-0.017-0.018-0.028-0.023-0.044c-0.013-0.033-0.019-0.068-0.036-0.1L87.668,68.832l20.505-12.65  C108.525,55.965,108.635,55.503,108.418,55.15z"/>
  
  <!-- Rainbow beam at bottom -->
  <path fill="url(#beamGradient)" opacity="0.9" d="M64.678,99.369l-30.961-9.136l30.961-8.593l30.961,8.593L64.678,99.369z"/>
  
  <!-- White light beam entering -->
  <path fill="#ffffff" opacity="0.8" d="M38.964,77.033l5.177,1.955l-1.563,2.892c-0.196,0.364-0.061,0.819,0.304,1.016c0.113,0.062,0.235,0.09,0.355,0.09  c0.267,0,0.525-0.143,0.661-0.394l14.135-26.166c0.196-0.364,0.061-0.819-0.304-1.016c-0.364-0.198-0.82-0.061-1.017,0.303  l-1.396,2.584L51.27,54.25l12.658-23.434v49.475l-31.438,8.726L38.964,77.033z"/>
</svg>